<svg xmlns="http://www.w3.org/2000/svg" width="100%" height="100%" viewBox="0 0 153.45 20.98">
  <path d="M.23,18.05a6.72,6.72,0,0,0,4,1.19,3.82,3.82,0,0,0,4.11-4.16c0-4-8.37-4.47-8.37-9.79C0,2,2.56,0,5.78,0A9.94,9.94,0,0,1,9.36.67L9.07,2.5a6.74,6.74,0,0,0-3.32-.76c-1.88,0-3.95.88-3.95,3.49,0,4.07,8.37,4.1,8.37,10,0,4.09-3.16,5.72-6,5.72a9.59,9.59,0,0,1-4.13-.87Z" fill="#205e38"/>
  <path d="M21.47.35h2l7.25,20.28H28.87l-2-5.43h-9.2l-2,5.43H14Zm.89,1.92-4,11.18h7.93Z" fill="#205e38"/>
  <path d="M34.94,18.05a6.69,6.69,0,0,0,4,1.19,3.81,3.81,0,0,0,4.1-4.16c0-4-8.36-4.47-8.36-9.79C34.71,2,37.27,0,40.48,0a10,10,0,0,1,3.59.67L43.78,2.5a6.74,6.74,0,0,0-3.32-.76c-1.88,0-4,.88-4,3.49,0,4.07,8.37,4.1,8.37,10,0,4.09-3.17,5.72-6,5.72a9.56,9.56,0,0,1-4.13-.87Z" fill="#205e38"/>
  <path d="M56.18.35h2l7.24,20.28H63.58l-2-5.43H52.41l-2,5.43H48.7Zm.89,1.92-4,11.18H61Z" fill="#205e38"/>
  <path d="M86.81,20.63H84.67L80,2.62H80l-4.7,18H73.11L67.87.35h1.86l4.5,18h0L79,.35h2.17l4.61,18h.05l4.58-18h1.72Z" fill="#205e38"/>
  <path d="M101.64.35h2l7.24,20.28H109l-2-5.43H97.87l-2,5.43H94.16Zm.89,1.92-4,11.18h7.93Z" fill="#205e38"/>
  <path d="M115.63,18.05a6.72,6.72,0,0,0,4,1.19,3.82,3.82,0,0,0,4.11-4.16c0-4-8.37-4.47-8.37-9.79C115.4,2,118,0,121.18,0a10,10,0,0,1,3.58.67l-.29,1.83a6.74,6.74,0,0,0-3.32-.76c-1.88,0-4,.88-4,3.49,0,4.07,8.37,4.1,8.37,10,0,4.09-3.16,5.72-6,5.72a9.59,9.59,0,0,1-4.13-.87Z" fill="#205e38"/>
  <path d="M131.87.35h1.81v9h9.23v-9h1.81V20.63h-1.81V11.07h-9.23v9.56h-1.81Z" fill="#205e38"/>
  <path d="M151.65.35h1.8V20.63h-1.8Z" fill="#205e38"/>
</svg>
